<svg xmlns="http://www.w3.org/2000/svg" viewBox="0 0 512 512">
  <path fill="#F97316" d="M256 32C132.3 32 32 132.3 32 256s100.3 224 224 224 224-100.3 224-224S379.7 32 256 32zm0 400c-97.2 0-176-78.8-176-176S158.8 80 256 80s176 78.8 176 176-78.8 176-176 176z"/>
  <path fill="#F97316" d="M256 120c-75.1 0-136 60.9-136 136s60.9 136 136 136 136-60.9 136-136-60.9-136-136-136zm0 232c-53 0-96-43-96-96s43-96 96-96 96 43 96 96-43 96-96 96z"/>
  <circle fill="#F97316" cx="200" cy="200" r="24"/>
  <circle fill="#F97316" cx="312" cy="200" r="24"/>
  <circle fill="#F97316" cx="256" cy="280" r="32"/>
  <circle fill="#F97316" cx="200" cy="312" r="20"/>
  <circle fill="#F97316" cx="312" cy="312" r="20"/>
</svg>
